<?xml version="1.0" encoding="UTF-8"?>
<svg width="205px" height="55px" viewBox="0 0 205 55" version="1.1" xmlns="http://www.w3.org/2000/svg" xmlns:xlink="http://www.w3.org/1999/xlink">
    <!-- Generator: Sketch 40.3 (33839) - http://www.bohemiancoding.com/sketch -->
    <title>Group</title>
    <desc>Created with Sketch.</desc>
    <defs></defs>
    <g id="登录注册" stroke="none" stroke-width="1" fill="none" fill-rule="evenodd">
        <g id="MA_LOGO横版_深底-[Converted]" transform="translate(-22.000000, -19.000000)" fill="#FFFFFF">
            <g id="Õ_xBA__x2264__x201E__5">
                <g id="Group" transform="translate(22.000000, 19.000000)">
                    <g transform="translate(83.000000, 47.000000)">
                        <path d="M5.3,7.8 L5.3,1.7 L3.3,4.8 L2.8,4.8 L0.8,1.6 L0.8,7.7 L0,7.7 L0,0.1 L0.6,0.1 L3,3.8 L5.4,0.1 L6,0.1 L6,7.7 L5.3,7.7 L5.3,7.8 Z" id="Shape"></path>
                        <polygon id="Shape" points="28.2 0.2 28.2 7.8 27.5 7.8 27.5 4.2 23.7 4.2 23.7 7.8 23 7.8 23 0.2 23.7 0.2 23.7 3.4 27.5 3.4 27.5 0.2"></polygon>
                        <path d="M39.2,1.6 C39.4,2.2 39.6,3.1 39.6,4 C39.6,4.8 39.5,5.7 39.2,6.4 L39.2,6.4 C38.8,7.5 37.7,7.9 36.7,7.8 C35.6,7.8 34.9,7.3 34.5,6.4 C34.3,5.8 34.1,4.9 34.1,4 C34.1,3.2 34.2,2.3 34.5,1.6 L34.5,1.6 C34.9,0.5 36,0.1 37,0.2 C38.1,0.3 38.9,0.7 39.2,1.6 L39.2,1.6 Z M35.2,1.9 C35,2.5 34.9,3.2 34.9,4 C34.9,4.8 35,5.6 35.2,6.1 C35.4,6.7 36,7 36.7,7 C37.5,7 38.3,6.8 38.5,6 C38.7,5.4 38.8,4.7 38.8,3.9 C38.8,3.1 38.7,2.3 38.5,1.8 C38.3,1.2 37.7,0.9 37,0.9 C36.3,0.9 35.5,1.2 35.2,1.9 L35.2,1.9 Z" id="Shape"></path>
                        <path d="M50.5,1.6 C50.7,2.2 50.9,3.1 50.9,4 C50.9,4.8 50.8,5.7 50.5,6.4 L50.5,6.4 C50.1,7.5 49,7.9 48,7.8 C46.9,7.8 46.2,7.3 45.8,6.4 C45.6,5.8 45.4,4.9 45.4,4 C45.4,3.2 45.5,2.3 45.8,1.6 L45.8,1.6 C46.2,0.5 47.3,0.1 48.3,0.2 C49.4,0.3 50.2,0.7 50.5,1.6 L50.5,1.6 Z M46.5,1.9 C46.3,2.5 46.2,3.2 46.2,4 C46.2,4.8 46.3,5.6 46.5,6.1 C46.7,6.7 47.3,7 48,7 C48.8,7 49.6,6.8 49.8,6 C50,5.4 50.1,4.7 50.1,3.9 C50.1,3.1 50,2.3 49.8,1.8 C49.6,1.2 49,0.9 48.3,0.9 C47.6,0.9 46.8,1.2 46.5,1.9 L46.5,1.9 Z" id="Shape"></path>
                        <path d="M61.8,1.6 C62,2.2 62.2,3.1 62.2,4 C62.2,4.8 62.1,5.7 61.8,6.4 L61.8,6.4 C61.4,7.5 60.3,7.9 59.3,7.8 C58.2,7.8 57.5,7.3 57.1,6.4 C56.9,5.8 56.7,4.9 56.7,4 C56.7,3.2 56.8,2.3 57.1,1.6 L57.1,1.6 C57.5,0.5 58.6,0.1 59.6,0.2 C60.7,0.3 61.4,0.7 61.8,1.6 L61.8,1.6 Z M57.7,1.9 C57.5,2.5 57.4,3.2 57.4,4 C57.4,4.8 57.5,5.6 57.7,6.1 C57.9,6.7 58.5,7 59.2,7 C60,7 60.8,6.8 61,6 C61.2,5.4 61.3,4.7 61.3,3.9 C61.3,3.1 61.2,2.3 61,1.8 C60.8,1.2 60.2,0.9 59.5,0.9 C58.8,0.9 58,1.2 57.7,1.9 L57.7,1.9 Z" id="Shape"></path>
                        <path d="M73.1,1.6 C73.3,2.2 73.5,3.1 73.5,4 C73.5,4.8 73.4,5.7 73.1,6.4 L73.1,6.4 C72.7,7.5 71.6,7.9 70.6,7.8 C69.5,7.8 68.8,7.3 68.4,6.4 C68.2,5.8 68,4.9 68,4 C68,3.2 68.1,2.3 68.4,1.6 L68.4,1.6 C68.8,0.5 69.9,0.1 70.9,0.2 C71.9,0.3 72.7,0.7 73.1,1.6 L73.1,1.6 Z M69,1.9 C68.8,2.5 68.7,3.2 68.7,4 C68.7,4.8 68.8,5.6 69,6.1 C69.2,6.7 69.8,7 70.5,7 C71.3,7 72.1,6.8 72.3,6 C72.5,5.4 72.6,4.7 72.6,3.9 C72.6,3.1 72.5,2.3 72.3,1.8 C72.1,1.2 71.5,0.9 70.8,0.9 C70.1,0.9 69.3,1.2 69,1.9 L69,1.9 Z" id="Shape"></path>
                        <path d="M95.4,1 C95,1 94.5,0.9 94,0.9 C93.1,0.9 92.3,1.1 92,1.9 C91.8,2.5 91.7,3.3 91.7,4 C91.7,4.8 91.8,5.6 92.1,6.2 C92.4,6.8 93.2,7 94.1,7 C94.5,7 94.9,7 95.4,6.9 L95.5,7.6 C95.1,7.6 94.6,7.7 94.2,7.7 C93.1,7.7 92,7.4 91.5,6.5 C91.2,5.9 91.1,4.9 91.1,4 C91.1,3.1 91.2,2.3 91.5,1.6 C91.9,0.4 93,0.1 94.2,0.1 C94.7,0.1 95.2,0.1 95.6,0.2 L95.4,1 L95.4,1 Z" id="Shape"></path>
                        <path d="M106.9,1.6 C107.1,2.2 107.3,3.1 107.3,4 C107.3,4.8 107.2,5.7 106.9,6.4 L106.9,6.4 C106.5,7.5 105.4,7.9 104.4,7.8 C103.3,7.8 102.6,7.3 102.2,6.4 C102,5.8 101.8,4.9 101.8,4 C101.8,3.2 101.9,2.3 102.2,1.6 L102.2,1.6 C102.6,0.5 103.7,0.1 104.7,0.2 C105.8,0.3 106.5,0.7 106.9,1.6 L106.9,1.6 Z M102.8,1.9 C102.6,2.5 102.5,3.2 102.5,4 C102.5,4.8 102.6,5.6 102.8,6.1 C103,6.7 103.6,7 104.3,7 C105.1,7 105.9,6.8 106.1,6 C106.3,5.4 106.4,4.7 106.4,3.9 C106.4,3.1 106.3,2.3 106.1,1.8 C105.9,1.2 105.3,0.9 104.6,0.9 C103.9,0.9 103.1,1.2 102.8,1.9 L102.8,1.9 Z" id="Shape"></path>
                        <path d="M118.1,7.8 L118.1,1.7 L116.1,4.8 L115.6,4.8 L113.6,1.6 L113.6,7.7 L112.9,7.7 L112.9,0.1 L113.5,0.1 L115.9,3.8 L118.3,0.1 L118.9,0.1 L118.9,7.7 L118.1,7.7 L118.1,7.8 Z" id="Shape"></path>
                        <circle id="Oval" cx="82" cy="4.1" r="0.5"></circle>
                        <path d="M14.7,0.2 L14,0.2 L11.2,7.8 L12,7.8 L12.9,5.2 L15.7,5.2 L16.6,7.8 L17.4,7.8 L14.7,0.2 L14.7,0.2 Z M13.2,4.5 C13.6,3.5 14,2.5 14.3,1.4 L15.4,4.5 L13.2,4.5 L13.2,4.5 Z" id="Shape"></path>
                    </g>
                    <path d="M55.6,0.4 L0.7,11.5 L0.7,51 C0.7,52.8 3.1,54.8 8.4,54.8 C13.7,54.8 16.1,52.8 16.1,51 L16.1,24.7 L27,29.4 L27,51 C27,51 27,51 27,51.1 C27,52.9 29.4,54.9 34.7,54.9 C40,54.9 42.4,52.9 42.4,51.1 L42.4,51.1 L42.4,51.1 L42.4,16.4 L13.8,22 L13.8,48.3 C12.5,47.7 10.8,47.3 8.4,47.3 C6,47.3 4.3,47.7 3,48.3 L3,13.4 L53.2,3.2 L53.2,51 C53.2,52.8 55.6,54.8 60.9,54.8 C66.2,54.8 68.6,52.8 68.6,51 L68.6,7.8 L55.6,0.4 L55.6,0.4 Z M40.1,48.2 C38.8,47.6 37.1,47.2 34.7,47.2 C32.3,47.2 30.6,47.6 29.3,48.2 L29.3,29.6 L40.1,27.5 L40.1,48.2 L40.1,48.2 Z M34.7,52.5 C31.7,52.5 29.2,51.8 29.2,51 C29.2,50.2 31.7,49.5 34.7,49.5 C37.7,49.5 40.2,50.2 40.2,51 C40.2,51.9 37.7,52.5 34.7,52.5 L34.7,52.5 Z M40.1,19.2 L40.1,25.2 L28.3,27.5 L18.9,23.4 L40.1,19.2 L40.1,19.2 Z M8.4,49.6 C11.4,49.6 13.9,50.3 13.9,51.1 C13.9,51.9 11.4,52.6 8.4,52.6 C5.4,52.6 2.9,51.9 2.9,51.1 C2.9,50.2 5.4,49.6 8.4,49.6 L8.4,49.6 Z M66.4,9.2 L66.4,48.3 C65.1,47.7 63.4,47.3 61,47.3 C58.6,47.3 56.9,47.7 55.6,48.3 L55.6,3.1 L66.4,9.2 L66.4,9.2 Z M61,52.5 C58,52.5 55.5,51.8 55.5,51 C55.5,50.2 58,49.5 61,49.5 C64,49.5 66.5,50.2 66.5,51 C66.5,51.9 64,52.5 61,52.5 L61,52.5 Z" id="Shape"></path>
                    <g transform="translate(80.000000, 15.000000)" id="Shape">
                        <path d="M32.6,5.9 L32.6,7.5 L26.9,7.5 L26.5,9.8 L32.6,9.8 L36.3,9.8 L36.3,7.5 L36.3,5.9 C36.3,3.4 34.3,1.4 31.8,1.4 L2.1,1.4 L1.7,3.7 L30.4,3.7 C31.6,3.6 32.6,4.6 32.6,5.9 L32.6,5.9 Z"></path>
                        <polygon points="32.6 17.8 0.4 17.8 0 20 32.6 20"></polygon>
                        <path d="M81.1,17.8 L81.1,15.3 L70.4,20.7 L54.8,14.3 L76.6,14.3 C79.1,14.3 81.1,12.3 81.1,9.8 L81.1,7.2 C81.1,4.7 79.1,2.7 76.6,2.7 L64.2,2.7 L64.2,0.6 L60.5,0.6 L60.5,2.7 L48.1,2.7 C45.6,2.7 43.6,4.7 43.6,7.2 L43.6,21.2 C43.6,23.7 45.6,25.7 48.1,25.7 L60.5,25.7 L60.1,23.4 L49.5,23.4 C48.3,23.4 47.3,22.4 47.3,21.2 L47.3,14.3 L48.8,14.3 L76.7,25.7 L82.7,25.7 L73,21.8 L81.1,17.8 L81.1,17.8 Z M49.6,5 L75.2,5 C76.4,5 77.4,6 77.4,7.2 L77.4,7.4 L47.3,7.4 L47.3,7.2 C47.4,6 48.4,5 49.6,5 L49.6,5 Z M47.4,9.7 L77.5,9.7 L77.5,9.8 C77.5,11 76.5,12 75.3,12 L47.4,12 L47.4,9.7 L47.4,9.7 Z"></path>
                        <polygon points="124.8 2.9 100.2 2.9 99.8 5.1 124.8 5.1"></polygon>
                        <path d="M124.8,7.5 L123,7.5 L119.3,7.5 L100.2,7.5 L99.8,9.8 L119.3,9.8 L119.3,21.3 C119.3,22.5 118.3,23.5 117.1,23.5 L106.5,23.5 L106.1,25.8 L118.5,25.8 C121,25.8 123,23.8 123,21.3 L123,9.8 L124.7,9.8 L124.7,7.5 L124.8,7.5 Z"></path>
                        <polygon points="85.6 6.9 85.6 9.4 96.1 3.9 96.1 1.4"></polygon>
                        <polygon points="96.1 9.2 96.1 7.3 85.6 12.8 85.6 15.4 92.5 11.8 92.5 25.7 96.1 25.7"></polygon>
                        <path d="M34.8,12.1 L6.6,12.1 L7.7,6 L4,6 L2.5,14.4 L2.5,14.4 L2.5,14.4 L4.7,14.4 L33.3,14.4 C34.5,14.4 35.5,15.4 35.5,16.6 L35.5,21.3 C35.5,22.5 34.5,23.5 33.3,23.5 L22.7,23.5 L22.3,25.7 L34.7,25.7 C37.2,25.7 39.2,23.7 39.2,21.2 L39.2,16.5 C39.2,14.1 37.2,12.1 34.8,12.1 L34.8,12.1 Z"></path>
                    </g>
                </g>
            </g>
        </g>
    </g>
</svg>